<svg width="50" height="51" viewBox="0 0 50 51" fill="none" xmlns="http://www.w3.org/2000/svg">
<rect x="0.5" y="0.785645" width="49" height="49" rx="7.5" stroke="#272A33"/>
<path d="M17.2898 32.7097C16.9034 32.3226 16.9034 31.695 17.2898 31.3079L31.2819 17.2903C31.6683 16.9032 32.2948 16.9032 32.6812 17.2903C33.0675 17.6774 33.0675 18.305 32.6812 18.6921L18.689 32.7097C18.3026 33.0968 17.6762 33.0968 17.2898 32.7097Z" fill="#272A33"/>
<path d="M32.7102 32.7097C33.0966 32.3226 33.0966 31.695 32.7102 31.3079L18.7181 17.2903C18.3317 16.9032 17.7052 16.9032 17.3188 17.2903C16.9325 17.6774 16.9325 18.305 17.3188 18.6921L31.311 32.7097C31.6974 33.0968 32.3238 33.0968 32.7102 32.7097Z" fill="#272A33"/>
</svg>
